<?xml version="1.0" encoding="UTF-8"?>
<svg id="Layer_1" xmlns="http://www.w3.org/2000/svg" version="1.1" viewBox="0 0 98 98">
  <!-- Generator: Adobe Illustrator 30.6.0, SVG Export Plug-In . SVG Version: 2.1.4 Build 109)  -->
  <defs>
    <style>
      .st0 {
        fill: none;
        stroke: #807b69;
        stroke-miterlimit: 10;
      }

      .st1 {
        fill: #ffe586;
      }

      .st2 {
        fill: #807b69;
      }
    </style>
  </defs>
  <circle class="st1" cx="49" cy="49" r="49"/>
  <circle class="st0" cx="49" cy="49" r="40"/>
  <path class="st2" d="M49.6,18c1.7,0,2.4,1.7,2.3,3.2l19.6,11.3c3.8-2.3,6.8,3,2.9,5.1v22.8c3.9,2.1.9,7.5-2.9,5.1l-19.6,11.4c0,1.5-.6,2.9-2.2,3.1h-1.5c-1.6-.2-2.3-1.7-2.2-3.2l-19.5-11.5c-3.7,2.7-7.1-2.8-3-5v-22.9c-4.1-2.1-.7-7.6,3-4.9l19.5-11.4c-.1-1.4.6-3.1,2.2-3.1h1.3ZM60.8,41.3l10-5.8c0-.4,0-.9,0-1.3l-19.9-11.6c-.4.3-.7.4-1.1.6v11.6s11,6.4,11,6.4ZM37.4,41.2l10.9-6.4v-11.6s-1-.6-1-.6l-20,11.5c0,.4,0,.6,0,1l10.2,6ZM48.3,74.8v-11.6s-11.9-6.9-11.9-6.9v-13.8s-9.9-5.8-9.9-5.8c-.3.3-.6.5-1.1.7v23.3c1.3.5,2.1,1.8,1.8,3.2l20,11.6c.3-.3.6-.4,1-.6ZM50.9,75.4l20-11.7c-.3-1.4.4-2.7,1.8-3.1v-23.2c-.4-.1-.6-.3-1-.5l-10,5.7v13.7s-11.9,6.9-11.9,6.9v11.7s1.1.6,1.1.6ZM49.7,49.4l11.4-6.6-.7-1.2-11.4,6.6-11.3-6.6-.8,1.2,11.3,6.6v13.5s1.5,0,1.5,0v-13.5Z"/>
</svg>